<svg width="444" height="500" viewBox="0 0 444 500" fill="none" xmlns="http://www.w3.org/2000/svg">
<path d="M214.547 500H0V0H268.183C302.987 0 331.355 0.714276 353.287 2.14286C375.695 3.57144 393.097 8.09527 405.493 15.7143C417.889 23.3333 426.709 35.7143 431.954 52.8571C437.198 70 440.297 94.2857 441.251 125.714C442.681 156.667 443.396 196.905 443.396 246.429V253.571C443.396 288.333 442.681 316.905 441.251 339.286C440.297 361.19 437.198 378.333 431.954 390.714C426.709 403.095 417.889 411.905 405.493 417.143C393.097 422.381 375.933 425.714 354.002 427.143C332.07 428.095 303.464 428.571 268.183 428.571H214.547V500ZM214.547 285.714H228.85V157.143C228.85 150 228.134 145.952 226.704 145C225.751 143.571 221.698 142.857 214.547 142.857V285.714Z" fill="black"/>
</svg>
