<svg width="517" height="583" viewBox="0 0 517 583" fill="none" xmlns="http://www.w3.org/2000/svg">
<path d="M250.161 583H0V0H312.702C353.283 0 386.36 0.832846 411.932 2.49857C438.06 4.1643 458.351 9.43909 472.805 18.3229C487.259 27.2067 497.543 41.6428 503.658 61.6314C509.773 81.62 513.387 109.937 514.498 146.583C516.166 182.673 517 229.591 517 287.336V295.664C517 336.197 516.166 369.511 514.498 395.607C513.387 421.148 509.773 441.137 503.658 455.573C497.543 470.009 487.259 480.281 472.805 486.389C458.351 492.496 438.338 496.383 412.766 498.049C387.194 499.159 353.839 499.714 312.702 499.714H250.161V583ZM250.161 333.143H266.839V183.229C266.839 174.9 266.005 170.18 264.337 169.07C263.225 167.404 258.5 166.571 250.161 166.571V333.143Z" fill="white"/>
</svg>
